<svg xmlns="http://www.w3.org/2000/svg" width="549" height="87" fill="none"><path fill="#fff" d="M120.073 33.74c-.408-.19-.489-.326-.489-.897 0-1.441.109-3.018.136-3.453 0-.38.109-.68.326-.68.245 0 .272.245.272.435 0 .354.108.897.244 1.332.571 1.93 2.12 2.665 3.751 2.665 2.364 0 3.506-1.604 3.506-2.99 0-1.279-.381-2.502-2.582-4.215l-1.196-.952c-2.881-2.256-3.886-4.105-3.886-6.225 0-2.882 2.419-4.976 6.06-4.976 1.713 0 2.8.272 3.479.435.245.055.381.136.381.327 0 .326-.109 1.114-.109 3.153 0 .571-.081.789-.299.789-.19 0-.272-.163-.272-.462 0-.245-.136-1.06-.679-1.74-.381-.49-1.142-1.278-2.854-1.278-1.93 0-3.125 1.142-3.125 2.719 0 1.196.598 2.12 2.772 3.779l.734.543c3.179 2.393 4.294 4.187 4.294 6.688 0 1.523-.571 3.345-2.473 4.568-1.305.843-2.773 1.087-4.186 1.087-1.522 0-2.718-.19-3.832-.68zM135.89 21.804c0-3.996 0-4.73-.054-5.573-.055-.897-.272-1.305-1.142-1.496-.217-.054-.652-.081-1.033-.081-.299 0-.434-.054-.434-.245 0-.19.19-.244.57-.244 1.386 0 3.044.081 3.588.081.897 0 2.881-.081 3.696-.081 1.658 0 3.425.163 4.838 1.141.734.49 1.794 1.85 1.794 3.59 0 1.93-.816 3.724-3.479 5.872 2.337 2.936 4.158 5.274 5.707 6.905 1.468 1.523 2.555 1.713 2.935 1.795.299.054.517.081.734.081.218 0 .326.082.326.218 0 .217-.19.272-.489.272h-2.5c-1.468 0-2.12-.136-2.8-.49-1.141-.598-2.119-1.848-3.587-3.86-1.06-1.441-2.256-3.236-2.609-3.616-.136-.163-.299-.19-.462-.19l-2.283-.055s-.218.054-.218.218v.38c0 2.447 0 4.513.136 5.628.082.761.245 1.332 1.033 1.44.408.055.978.11 1.277.11.218 0 .327.081.327.217 0 .19-.191.272-.517.272-1.522 0-3.479-.082-3.859-.082-.489 0-2.147.082-3.207.082-.326 0-.517-.082-.517-.272 0-.136.109-.217.435-.217.381 0 .707-.055.952-.11.516-.108.652-.679.761-1.44.135-1.115.135-3.181.135-5.6V21.83zm3.098 2.094c0 .299.055.38.245.462.543.19 1.332.272 1.984.272 1.06 0 1.386-.109 1.875-.435.788-.571 1.549-1.795 1.549-3.942 0-3.725-2.473-4.813-4.022-4.813-.652 0-1.141 0-1.386.11-.19.053-.245.162-.245.353zM157.252 21.804c0-3.996 0-4.73-.055-5.573-.054-.897-.326-1.332-.897-1.468a3.7 3.7 0 0 0-.951-.11c-.272 0-.408-.053-.408-.27 0-.164.218-.218.626-.218 1.005 0 2.663.081 3.424.081.652 0 2.201-.081 3.207-.081.353 0 .544.054.544.217 0 .218-.164.272-.408.272-.245 0-.462 0-.788.082-.707.135-.924.57-.979 1.495-.054.843-.054 1.577-.054 5.573v4.622c0 2.556 0 4.622.109 5.764.081.707.271 1.196 1.06 1.278.353.054.951.108 1.331.108.299 0 .408.082.408.218 0 .19-.217.272-.489.272-1.74 0-3.397-.082-4.104-.082-.598 0-2.256.082-3.316.082-.326 0-.516-.082-.516-.272 0-.136.109-.218.435-.218.38 0 .706-.054.951-.108.516-.11.679-.544.761-1.305.136-1.115.136-3.181.136-5.737v-4.622zM177.962 14.3c.082-.434.245-.679.435-.679s.381.136.707.816l7.175 14.817 7.148-15.008c.217-.408.326-.625.571-.625s.407.272.462.816l2.391 16.23c.245 1.659.489 2.42 1.278 2.665.761.245 1.277.272 1.63.272.245 0 .408 0 .408.19 0 .218-.326.3-.679.3-.653 0-4.267-.082-5.327-.164-.598-.054-.761-.136-.761-.299 0-.136.108-.218.299-.3.163-.053.244-.407.135-1.141l-1.576-11.555h-.109l-5.734 11.908c-.598 1.224-.734 1.469-.979 1.469-.244 0-.489-.517-.924-1.305-.625-1.197-2.717-5.22-3.016-5.954-.245-.544-1.821-3.861-2.718-5.819h-.109l-1.359 10.44a10 10 0 0 0-.081 1.224c0 .49.353.734.788.843.462.108.842.136 1.114.136.218 0 .381.054.381.19 0 .245-.245.299-.626.299-1.114 0-2.283-.082-2.745-.082-.489 0-1.766.082-2.609.082-.271 0-.462-.054-.462-.3 0-.135.163-.19.435-.19.218 0 .381 0 .788-.081.734-.163.952-1.17 1.087-2.066l2.61-17.128zM207.643 27.188s-.191.054-.245.217l-1.413 3.752c-.272.652-.408 1.278-.408 1.604 0 .462.245.816 1.06.816h.381c.326 0 .407.054.407.217 0 .218-.163.272-.462.272-.842 0-1.957-.082-2.772-.082-.299 0-1.739.082-3.098.082-.354 0-.489-.054-.489-.272 0-.163.108-.217.326-.217.244 0 .598 0 .815-.055 1.196-.163 1.712-1.06 2.229-2.365l6.577-16.503c.326-.761.462-1.06.734-1.06.244 0 .407.244.652.843.625 1.44 4.838 12.152 6.523 16.149 1.005 2.365 1.766 2.719 2.31 2.855.38.081.788.108 1.114.108.218 0 .353 0 .353.218 0 .217-.244.272-1.195.272s-2.854 0-4.974-.055c-.462 0-.788 0-.788-.217 0-.163.108-.218.353-.245.19-.054.381-.299.245-.598l-2.093-5.573s-.136-.19-.272-.19h-5.843zm5.354-1.305s.163-.082.136-.164l-2.365-6.497s-.054-.245-.136-.245c-.081 0-.136.136-.163.245l-2.419 6.47s0 .19.109.19zM227.861 30.477c.054 2.04.381 2.72.924 2.91.435.163.951.19 1.359.19.299 0 .462.054.462.217 0 .218-.244.272-.598.272-1.712 0-2.745-.082-3.261-.082-.245 0-1.468.082-2.827.082-.326 0-.57 0-.57-.272 0-.163.163-.217.407-.217.354 0 .816 0 1.169-.136.679-.218.788-.979.815-3.263l.245-15.55c0-.518.082-.898.326-.898.299 0 .516.353.978.816.327.326 4.295 4.621 8.127 8.428 1.794 1.794 5.327 5.573 5.762 5.98h.135l-.271-11.798c0-1.605-.272-2.094-.897-2.366-.408-.163-1.033-.163-1.386-.163-.327 0-.408-.082-.408-.245 0-.217.299-.244.679-.244 1.359 0 2.637.081 3.18.081.299 0 1.278-.081 2.582-.081.354 0 .598 0 .598.244 0 .164-.163.245-.462.245-.272 0-.462 0-.788.082-.734.217-.951.76-.979 2.229l-.298 16.557c0 .571-.109.816-.327.816-.299 0-.598-.3-.897-.571-1.657-1.577-5.027-5.003-7.745-7.721-2.854-2.828-5.762-6.118-6.251-6.607h-.082l.299 11.038zM252.322 27.188s-.19.054-.244.217l-1.414 3.752c-.271.652-.407 1.278-.407 1.604 0 .462.244.816 1.06.816h.38c.326 0 .408.054.408.217 0 .218-.163.272-.462.272-.843 0-1.957-.082-2.772-.082-.299 0-1.74.082-3.099.082-.353 0-.489-.054-.489-.272 0-.163.109-.217.326-.217.245 0 .598 0 .816-.055 1.195-.163 1.712-1.06 2.228-2.365l6.577-16.503c.326-.761.462-1.06.734-1.06.245 0 .408.244.652.843.626 1.44 4.838 12.152 6.523 16.149 1.006 2.365 1.767 2.719 2.31 2.855.381.081.789.108 1.115.108.217 0 .353 0 .353.218 0 .217-.244.272-1.196.272-.951 0-2.853 0-4.973-.055-.462 0-.789 0-.789-.217 0-.163.109-.218.354-.245.19-.054.38-.299.244-.598l-2.092-5.573s-.136-.19-.272-.19h-5.844zm5.354-1.305s.164-.082.136-.164l-2.364-6.497s-.054-.245-.136-.245-.136.136-.163.245l-2.419 6.47s0 .19.109.19zM273.851 22.973h.136c.897-.978 4.729-4.893 5.49-5.763.734-.87 1.305-1.523 1.305-1.958 0-.299-.109-.462-.381-.517-.244-.054-.326-.108-.326-.271 0-.19.136-.245.408-.245.543 0 1.984.082 2.718.082.815 0 2.255-.082 3.071-.082.272 0 .435.054.435.245 0 .19-.136.244-.381.244-.38 0-1.033.11-1.522.3-.815.326-1.712.87-2.826 1.957-.816.788-4.784 4.73-5.681 5.682.952 1.224 6.088 6.77 7.121 7.749 1.141 1.114 2.337 2.283 3.751 2.827.788.326 1.304.408 1.63.408.191 0 .354.054.354.217 0 .19-.136.272-.626.272h-2.282c-.789 0-1.251 0-1.821-.054-1.414-.136-2.12-.707-3.262-1.713-1.141-1.033-6.332-7.096-6.876-7.857l-.299-.408h-.136v2.392c0 2.42 0 4.486.082 5.628.054.734.299 1.305.951 1.414.381.055.951.109 1.277.109.218 0 .354.081.354.217 0 .19-.218.272-.489.272-1.468 0-3.126-.081-3.778-.081-.598 0-2.256.081-3.316.081-.326 0-.516-.081-.516-.272 0-.136.108-.217.434-.217.381 0 .707-.054.952-.109.516-.109.652-.68.761-1.44.136-1.116.136-3.182.136-5.602V21.86c0-3.997 0-4.731-.055-5.574-.054-.897-.272-1.305-1.141-1.495-.218-.054-.653-.082-1.033-.082-.299 0-.435-.054-.435-.244s.19-.245.571-.245c1.386 0 3.044.082 3.669.082s2.283-.082 3.18-.082c.38 0 .543.054.543.245 0 .19-.163.244-.38.244-.272 0-.408 0-.734.082-.707.136-.924.57-.978 1.495-.055.843-.055 1.577-.055 5.574V23zM290.753 21.804c0-3.996 0-4.73-.054-5.573-.055-.897-.272-1.305-1.142-1.496-.217-.054-.652-.081-1.032-.081-.299 0-.435-.054-.435-.245 0-.19.19-.244.57-.244 1.387 0 3.045.081 3.833.081.625 0 2.283-.081 3.234-.081.38 0 .571.054.571.244s-.163.245-.435.245c-.299 0-.435 0-.761.082-.707.135-.924.57-.979 1.495-.054.843-.054 1.577-.054 5.573v3.67c0 3.807.761 5.41 2.038 6.471 1.169.979 2.392 1.088 3.289 1.088 1.141 0 2.582-.381 3.615-1.414 1.44-1.441 1.522-3.806 1.522-6.525v-3.29c0-3.996 0-4.73-.055-5.573-.054-.897-.272-1.305-1.141-1.496-.218-.054-.652-.081-.951-.081s-.435-.054-.435-.245c0-.19.19-.244.543-.244 1.332 0 2.99.081 3.017.081.326 0 1.957-.081 2.99-.081.38 0 .543.054.543.244s-.163.245-.462.245-.435 0-.761.082c-.706.135-.924.57-.978 1.495-.055.843-.055 1.577-.055 5.573v2.8c0 2.91-.299 6.009-2.5 7.912-1.875 1.604-3.75 1.903-5.463 1.903-1.386 0-3.913-.081-5.816-1.821-1.332-1.197-2.337-3.154-2.337-6.96v-3.834zM317.414 26.426c0 3.371 0 5.166.544 5.655.435.38 1.141.571 3.18.571 1.386 0 2.418 0 3.071-.734.326-.354.625-1.088.679-1.577 0-.245.082-.38.299-.38.19 0 .218.135.218.434 0 .3-.191 2.257-.381 3.018-.163.571-.299.707-1.658.707-1.902 0-3.261-.054-4.43-.081a66 66 0 0 0-3.207-.082h-1.495c-.598 0-1.277.054-1.821.054-.326 0-.516-.081-.516-.272 0-.136.109-.217.435-.217.38 0 .707-.054.951-.109.517-.108.652-.68.761-1.44.136-1.115.136-3.182.136-5.601V21.75c0-3.997 0-4.73-.054-5.574-.055-.897-.272-1.305-1.142-1.495a3.8 3.8 0 0 0-.87-.081c-.299 0-.462-.055-.462-.245s.191-.245.571-.245c1.223 0 2.881.082 3.588.082.625 0 2.554-.082 3.56-.082.381 0 .543.055.543.245s-.163.245-.462.245c-.298 0-.706 0-1.032.081-.707.136-.924.571-.979 1.495-.054.843-.054 1.577-.054 5.574v4.622zM332.854 27.188s-.191.054-.245.217l-1.413 3.752c-.272.652-.408 1.278-.408 1.604 0 .462.245.816 1.06.816h.38c.327 0 .408.054.408.217 0 .218-.163.272-.462.272-.842 0-1.957-.082-2.772-.082-.299 0-1.739.082-3.098.082-.354 0-.49-.054-.49-.272 0-.163.109-.217.327-.217.244 0 .597 0 .815-.055 1.196-.163 1.712-1.06 2.229-2.365l6.577-16.503c.326-.761.462-1.06.733-1.06.245 0 .408.244.653.843.625 1.44 4.838 12.152 6.523 16.149 1.005 2.365 1.766 2.719 2.31 2.855.38.081.788.108 1.114.108.217 0 .353 0 .353.218 0 .217-.244.272-1.196.272-.951 0-2.853 0-4.973-.055-.462 0-.788 0-.788-.217 0-.163.108-.218.353-.245.19-.054.38-.299.245-.598l-2.093-5.573s-.136-.19-.272-.19h-5.843zm5.354-1.305s.163-.082.136-.164l-2.365-6.497s-.054-.245-.136-.245c-.081 0-.136.136-.163.245l-2.419 6.47s0 .19.109.19zM355.63 16.775c-.598-1.441-1.06-1.74-1.984-1.985-.38-.109-.815-.109-1.033-.109-.244 0-.326-.081-.326-.245 0-.217.299-.244.68-.244 1.386 0 2.881.081 3.805.081.652 0 1.929-.081 3.234-.081.326 0 .598.054.598.244s-.163.245-.381.245c-.408 0-.815 0-1.033.19a.64.64 0 0 0-.271.544c0 .354.244 1.088.597 2.012l4.512 11.908h.109c1.141-2.882 4.539-11.337 5.164-13.077.136-.353.244-.734.244-.979a.49.49 0 0 0-.353-.49c-.326-.108-.707-.135-1.06-.135-.245 0-.435 0-.435-.218 0-.217.245-.271.734-.271 1.305 0 2.419.081 2.745.081.435 0 1.685-.081 2.473-.081.326 0 .544.054.544.244s-.163.245-.435.245-.815 0-1.277.326c-.354.245-.734.68-1.441 2.366-1.033 2.474-1.739 3.887-3.153 7.123-1.685 3.833-2.908 6.688-3.506 8.02-.679 1.522-.842 1.93-1.195 1.93-.327 0-.49-.353-1.006-1.604l-6.604-16.04zM378.048 21.804c0-3.996 0-4.73-.054-5.573-.054-.897-.326-1.332-.897-1.468a3.7 3.7 0 0 0-.951-.11c-.272 0-.408-.053-.408-.27 0-.164.218-.218.625-.218 1.006 0 2.664.081 3.425.081.652 0 2.201-.081 3.207-.081.353 0 .543.054.543.217 0 .218-.163.272-.407.272-.245 0-.462 0-.788.082-.707.135-.924.57-.979 1.495-.054.843-.054 1.577-.054 5.573v4.622c0 2.556 0 4.622.108 5.764.082.707.272 1.196 1.06 1.278.354.054.952.108 1.332.108.299 0 .408.082.408.218 0 .19-.218.272-.489.272-1.74 0-3.398-.082-4.104-.082-.598 0-2.256.082-3.316.082-.326 0-.516-.082-.516-.272 0-.136.108-.218.434-.218.381 0 .707-.054.952-.108.516-.11.679-.544.761-1.305.136-1.115.136-3.181.136-5.737v-4.622zM391.232 30.477c.055 2.04.381 2.72.924 2.91.435.163.952.19 1.359.19.299 0 .462.054.462.217 0 .218-.244.272-.598.272-1.712 0-2.745-.082-3.261-.082-.245 0-1.468.082-2.826.082-.327 0-.571 0-.571-.272 0-.163.163-.217.407-.217.354 0 .816 0 1.169-.136.68-.218.788-.979.815-3.263l.245-15.55c0-.518.082-.898.326-.898.299 0 .517.353.979.816.326.326 4.294 4.621 8.126 8.428 1.794 1.794 5.327 5.573 5.762 5.98h.135l-.271-11.798c0-1.605-.272-2.094-.897-2.366-.408-.163-1.033-.163-1.386-.163-.326 0-.408-.082-.408-.245 0-.217.299-.244.68-.244 1.358 0 2.636.081 3.179.081.299 0 1.278-.081 2.582-.081.354 0 .598 0 .598.244 0 .164-.163.245-.462.245-.272 0-.462 0-.788.082-.734.217-.951.76-.978 2.229l-.299 16.557c0 .571-.109.816-.326.816-.299 0-.598-.3-.897-.571-1.658-1.577-5.028-5.003-7.746-7.721-2.854-2.828-5.762-6.118-6.251-6.607h-.082l.299 11.038zM415.69 27.188s-.191.054-.245.217l-1.413 3.752c-.272.652-.408 1.278-.408 1.604 0 .462.245.816 1.06.816h.38c.327 0 .408.054.408.217 0 .218-.163.272-.462.272-.842 0-1.957-.082-2.772-.082-.299 0-1.74.082-3.098.082-.354 0-.49-.054-.49-.272 0-.163.109-.217.327-.217.244 0 .597 0 .815-.055 1.196-.163 1.712-1.06 2.228-2.365l6.578-16.503c.326-.761.462-1.06.733-1.06.245 0 .408.244.653.843.625 1.44 4.837 12.152 6.522 16.149 1.006 2.365 1.767 2.719 2.311 2.855.38.081.788.108 1.114.108.217 0 .353 0 .353.218 0 .217-.244.272-1.196.272-.951 0-2.853 0-4.973-.055-.462 0-.788 0-.788-.217 0-.163.108-.218.353-.245.19-.054.38-.299.245-.598l-2.093-5.573s-.136-.19-.272-.19h-5.843zm5.354-1.305s.163-.082.136-.164l-2.365-6.497s-.054-.245-.136-.245c-.081 0-.136.136-.163.245l-2.419 6.47s0 .19.109.19zM435.397 27.242c0-1.414-.272-1.985-.598-2.746-.19-.408-3.696-6.199-4.62-7.558-.652-.98-1.305-1.632-1.821-1.93-.326-.191-.788-.354-1.114-.354-.218 0-.408-.054-.408-.245 0-.163.19-.244.489-.244.462 0 2.446.081 3.316.081.544 0 1.631-.081 2.799-.081.272 0 .381.081.381.244s-.191.19-.571.3a.48.48 0 0 0-.38.462c0 .19.135.516.326.897.353.788 4.049 7.123 4.457 7.857.272-.626 3.56-6.416 3.941-7.232.271-.571.353-1.033.353-1.36 0-.271-.109-.543-.544-.652-.244-.054-.462-.109-.462-.272 0-.19.136-.244.435-.244.87 0 1.713.081 2.474.081.57 0 2.31-.081 2.799-.081.299 0 .462.054.462.217 0 .19-.217.272-.489.272s-.761.109-1.142.326c-.543.272-.842.571-1.413 1.278-.87 1.06-4.539 7.232-5.028 8.347-.381.951-.381 1.767-.381 2.637v2.148c0 .407 0 1.522.082 2.637.054.761.299 1.332 1.087 1.44.381.055.951.11 1.305.11.299 0 .407.081.407.217 0 .19-.217.272-.543.272-1.658 0-3.316-.082-4.023-.082-.652 0-2.31.082-3.288.082-.381 0-.571-.055-.571-.272 0-.136.136-.218.408-.218.38 0 .679-.054.924-.108.516-.11.761-.68.815-1.441.082-1.115.082-2.203.082-2.637v-2.148zM451.053 27.188s-.19.054-.245.217l-1.413 3.752c-.272.652-.408 1.278-.408 1.604 0 .462.245.816 1.06.816h.381c.326 0 .407.054.407.217 0 .218-.163.272-.462.272-.842 0-1.956-.082-2.772-.082-.299 0-1.739.082-3.098.082-.353 0-.489-.054-.489-.272 0-.163.108-.217.326-.217.244 0 .598 0 .815-.055 1.196-.163 1.712-1.06 2.229-2.365l6.577-16.503c.326-.761.462-1.06.734-1.06.244 0 .407.244.652.843.625 1.44 4.838 12.152 6.523 16.149 1.005 2.365 1.766 2.719 2.31 2.855.38.081.788.108 1.114.108.218 0 .354 0 .354.218 0 .217-.245.272-1.196.272s-2.854 0-4.974-.055c-.462 0-.788 0-.788-.217 0-.163.109-.218.353-.245.19-.054.381-.299.245-.598l-2.093-5.573s-.136-.19-.272-.19h-5.843zm5.354-1.305s.163-.082.136-.164l-2.365-6.497s-.054-.245-.136-.245c-.081 0-.135.136-.163.245l-2.419 6.47s0 .19.109.19zM483.284 32.299c0 .707 0 .761-.353.952-1.713.897-4.267 1.169-6.333 1.169-6.441 0-12.121-3.045-12.121-10.304 0-4.187 2.174-7.15 4.566-8.592 2.527-1.522 4.864-1.712 7.066-1.712 1.821 0 4.131.326 4.647.407.544.11 1.468.272 2.066.3.326 0 .353.135.353.326 0 .299-.19 1.033-.19 4.295 0 .408-.082.544-.299.544-.19 0-.245-.136-.272-.326-.081-.598-.217-1.441-.897-2.175-.788-.843-2.88-2.04-5.843-2.04-1.44 0-3.37.11-5.191 1.632-1.468 1.223-2.419 3.208-2.419 6.443 0 5.655 3.588 9.87 9.132 9.87.68 0 1.603 0 2.229-.3.38-.19.489-.516.489-.978v-5.574c0-.897-.272-1.305-1.142-1.495-.217-.055-.652-.082-1.032-.082-.245 0-.408-.054-.408-.217 0-.218.19-.272.544-.272 1.358 0 3.016.081 3.804.081.789 0 2.202-.081 3.072-.081.353 0 .516.054.516.272 0 .163-.163.217-.353.217-.218 0-.381 0-.707.082-.707.136-.978.57-1.006 1.495v6.036zM492.065 27.188s-.191.054-.245.217l-1.413 3.752c-.272.652-.408 1.278-.408 1.604 0 .462.245.816 1.06.816h.381c.326 0 .407.054.407.217 0 .218-.163.272-.462.272-.842 0-1.957-.082-2.772-.082-.299 0-1.739.082-3.098.082-.354 0-.49-.054-.49-.272 0-.163.109-.217.327-.217.244 0 .598 0 .815-.055 1.196-.163 1.712-1.06 2.229-2.365l6.577-16.503c.326-.761.462-1.06.734-1.06.244 0 .407.244.652.843.625 1.44 4.837 12.152 6.522 16.149 1.006 2.365 1.767 2.719 2.311 2.855.38.081.788.108 1.114.108.217 0 .353 0 .353.218 0 .217-.244.272-1.196.272-.951 0-2.853 0-4.973-.055-.462 0-.788 0-.788-.217 0-.163.108-.218.353-.245.19-.054.381-.299.245-.598l-2.093-5.573s-.136-.19-.272-.19h-5.843zm5.354-1.305s.163-.082.136-.164l-2.365-6.497s-.054-.245-.136-.245c-.081 0-.136.136-.163.245l-2.419 6.47s0 .19.109.19zM510.355 21.804c0-3.996 0-4.73-.054-5.573-.055-.897-.272-1.305-1.142-1.496-.217-.054-.652-.081-1.033-.081-.299 0-.435-.054-.435-.245 0-.19.191-.244.571-.244 1.386 0 3.044.081 3.588.081.897 0 2.881-.081 3.696-.081 1.658 0 3.424.163 4.838 1.141.733.49 1.793 1.85 1.793 3.59 0 1.93-.815 3.724-3.478 5.872 2.337 2.936 4.158 5.274 5.707 6.905 1.468 1.523 2.555 1.713 2.935 1.795.299.054.517.081.734.081s.326.082.326.218c0 .217-.19.272-.489.272h-2.5c-1.468 0-2.12-.136-2.8-.49-1.141-.598-2.12-1.848-3.587-3.86-1.06-1.441-2.256-3.236-2.609-3.616-.136-.163-.299-.19-.462-.19l-2.283-.055s-.218.054-.218.218v.38c0 2.447 0 4.513.136 5.628.082.761.245 1.332 1.033 1.44.407.055.978.11 1.277.11.218 0 .326.081.326.217 0 .19-.19.272-.516.272-1.522 0-3.479-.082-3.859-.082-.489 0-2.147.082-3.207.082-.327 0-.517-.082-.517-.272 0-.136.109-.217.435-.217.381 0 .707-.055.951-.11.517-.108.653-.679.761-1.44.136-1.115.136-3.181.136-5.6V21.83zm3.098 2.094c0 .299.055.38.245.462.543.19 1.332.272 1.984.272 1.06 0 1.386-.109 1.875-.435.788-.571 1.549-1.795 1.549-3.942 0-3.725-2.473-4.813-4.022-4.813-.652 0-1.142 0-1.386.11-.19.053-.245.162-.245.353zM194.188 49.97v-2.582c0-.408-.109-.598-.516-.707-.109 0-.299-.027-.49-.027-.136 0-.217 0-.217-.109s.081-.109.272-.109h4.7829999999999995c.245 0 .435-.054.516-.081.055 0 .136-.055.191-.055s.081.055.081.11c0 .08-.054.217-.109.788 0 .108-.027.652-.054.815 0 .055-.027.136-.109.136-.081 0-.108-.054-.108-.163 0-.081 0-.299-.082-.435-.081-.218-.217-.353-.815-.435-.218 0-1.495-.054-1.74-.054-.054 0-.081.027-.081.108v3.1s0 .136.081.136h1.957c.299 0 .489-.055.598-.19.082-.11.136-.164.19-.164.055 0 .082 0 .082.109s-.054.272-.109.897c0 .245-.054.734-.054.816 0 .109 0 .217-.109.217-.081 0-.109-.054-.109-.108 0-.11 0-.272-.054-.435-.054-.245-.217-.435-.679-.463-.218 0-1.441-.027-1.74-.027-.054 0-.081.055-.081.109v2.855c0 .843.217 1.033 1.467 1.033.326 0 .843 0 1.142-.136.326-.136.462-.408.543-.897 0-.136.055-.19.136-.19.109 0 .109.108.109.217 0 .272-.109 1.114-.163 1.36-.082.325-.19.325-.652.325-.924 0-1.577 0-2.12-.027-.517 0-.897-.027-1.278-.027h-1.549c-.163 0-.244-.027-.244-.109 0-.054.054-.108.19-.108.19 0 .326 0 .435-.055.244-.054.299-.326.353-.68.054-.516.054-1.468.054-2.61v-2.147zM208.052 53.994c0 .952.19 1.278.435 1.36.217.081.434.081.625.081.136 0 .217 0 .217.109s-.109.109-.272.109c-.788 0-1.277-.027-1.522-.027-.108 0-.679.027-1.304.027-.163 0-.272 0-.272-.109 0-.081.082-.109.19-.109.163 0 .381 0 .544-.054.326-.109.353-.462.38-1.523l.109-7.231c0-.245.027-.408.163-.408s.245.163.462.38c.136.164 2.011 2.148 3.778 3.915.815.816 2.473 2.583 2.691 2.773h.054l-.109-5.464c0-.734-.109-.979-.407-1.088-.191-.081-.463-.081-.653-.081-.136 0-.19-.028-.19-.109 0-.109.136-.109.326-.109.625 0 1.223.027 1.468.027.136 0 .598-.027 1.196-.027.163 0 .271 0 .271.109 0 .081-.081.109-.217.109-.109 0-.217 0-.353.027-.354.109-.435.353-.462 1.033l-.136 7.694c0 .272-.055.38-.163.38-.136 0-.272-.135-.408-.271-.761-.734-2.337-2.338-3.588-3.589a70 70 0 0 1-2.908-3.072h-.027l.136 5.111zM231.505 54.837c0 .326 0 .354-.163.435-.788.408-1.984.544-2.935.544-2.99 0-5.626-1.414-5.626-4.785 0-1.957 1.006-3.317 2.12-3.997 1.169-.706 2.256-.788 3.289-.788.842 0 1.902.136 2.147.19.244.055.679.109.951.136.136 0 .163.055.163.136 0 .136-.082.462-.082 2.012 0 .19-.027.245-.135.245-.082 0-.109-.055-.109-.163-.027-.272-.109-.68-.408-1.006-.353-.38-1.331-.952-2.718-.952-.679 0-1.549.054-2.418.761-.68.571-1.115 1.496-1.115 2.991 0 2.61 1.658 4.595 4.24 4.595.326 0 .734 0 1.033-.136.19-.082.217-.245.217-.462V52.01c0-.408-.109-.598-.516-.68-.109 0-.299-.027-.462-.027-.109 0-.19 0-.19-.109s.081-.109.244-.109c.625 0 1.413.028 1.767.028s1.033-.028 1.44-.028c.163 0 .245 0 .245.11 0 .08-.082.108-.163.108-.109 0-.191 0-.326.027-.327.054-.462.272-.462.68v2.8zM240.015 49.97v-2.582c0-.408-.136-.625-.407-.68a2.4 2.4 0 0 0-.435-.054c-.109 0-.191 0-.191-.109 0-.081.109-.108.299-.108.462 0 1.223.027 1.577.027.299 0 1.032-.027 1.494-.027.164 0 .245 0 .245.108 0 .109-.081.109-.19.109s-.218 0-.353.027c-.327.055-.435.272-.462.707v4.731c0 1.169 0 2.148.054 2.664.027.326.109.544.489.598.163 0 .435.055.625.055.136 0 .191.027.191.108 0 .082-.109.11-.218.11-.815 0-1.576-.028-1.902-.028-.272 0-1.06.027-1.55.027-.163 0-.244-.027-.244-.109 0-.054.054-.108.19-.108.19 0 .326 0 .435-.055.244-.054.326-.245.353-.598.055-.517.055-1.468.055-2.664V49.97zM251.808 53.994c0 .952.19 1.278.434 1.36.218.081.435.081.625.081.136 0 .218 0 .218.109s-.109.109-.272.109c-.788 0-1.277-.027-1.522-.027-.108 0-.679.027-1.304.027-.164 0-.272 0-.272-.109 0-.081.081-.109.19-.109.163 0 .381 0 .544-.054.326-.109.353-.462.38-1.523l.109-7.231c0-.245.027-.408.163-.408s.245.163.462.38c.136.164 2.011 2.148 3.778 3.915.815.816 2.473 2.583 2.69 2.773h.055l-.109-5.464c0-.734-.109-.979-.408-1.088-.19-.081-.462-.081-.652-.081-.136 0-.19-.028-.19-.109 0-.109.136-.109.326-.109.625 0 1.223.027 1.468.027.135 0 .597-.027 1.195-.027.163 0 .272 0 .272.109 0 .081-.081.109-.217.109-.109 0-.218 0-.354.027-.353.109-.434.353-.461 1.033l-.137 7.694c0 .272-.054.38-.163.38-.135 0-.271-.135-.407-.271-.761-.734-2.338-2.338-3.588-3.589a70 70 0 0 1-2.908-3.072h-.027l.136 5.111zM268.169 49.97v-2.582c0-.408-.109-.598-.517-.707-.109 0-.299-.027-.462-.027-.136 0-.217 0-.217-.109s.081-.109.272-.109h4.7829999999999995c.245 0 .435-.054.516-.081.055 0 .136-.055.19-.055.055 0 .082.055.082.11 0 .08-.054.217-.109.788 0 .108-.027.652-.054.815 0 .055-.027.136-.109.136-.081 0-.108-.054-.108-.163 0-.081 0-.299-.082-.435-.081-.218-.217-.353-.815-.435-.218 0-1.495-.054-1.74-.054-.054 0-.081.027-.081.108v3.1s0 .136.081.136h1.957c.299 0 .462-.055.598-.19.082-.11.136-.164.19-.164.055 0 .082 0 .082.109s-.055.272-.109.897c0 .245-.054.734-.054.816 0 .109 0 .217-.109.217-.081 0-.109-.054-.109-.108 0-.11 0-.272-.054-.435-.054-.245-.217-.435-.679-.463-.218 0-1.441-.027-1.74-.027-.054 0-.082.055-.082.109v2.855c0 .843.218 1.033 1.468 1.033.326 0 .843 0 1.142-.136.326-.136.462-.408.543-.897 0-.136.055-.19.136-.19.109 0 .109.108.109.217 0 .272-.109 1.114-.163 1.36-.082.325-.191.325-.653.325-.924 0-1.576 0-2.119-.027-.517 0-.897-.027-1.278-.027h-1.549c-.163 0-.245-.027-.245-.109 0-.054.055-.108.191-.108.19 0 .326 0 .435-.055.244-.054.298-.326.353-.68.054-.516.054-1.468.054-2.61v-2.147zM279.475 49.97v-2.582c0-.408-.109-.598-.516-.707-.109 0-.299-.027-.49-.027-.135 0-.217 0-.217-.109s.081-.109.272-.109h4.7829999999999995c.245 0 .435-.054.516-.081.055 0 .136-.055.191-.055s.081.055.081.11c0 .08-.054.217-.108.788 0 .108-.028.652-.055.815 0 .055-.027.136-.109.136-.081 0-.108-.054-.108-.163 0-.081 0-.299-.082-.435-.081-.218-.217-.353-.815-.435-.218 0-1.495-.054-1.74-.054-.054 0-.081.027-.081.108v3.1s0 .136.081.136h1.957c.299 0 .489-.055.598-.19.082-.11.136-.164.19-.164.055 0 .082 0 .082.109s-.054.272-.109.897c0 .245-.054.734-.054.816 0 .109 0 .217-.109.217-.081 0-.108-.054-.108-.108 0-.11-.001-.272-.055-.435-.054-.245-.217-.435-.679-.463-.218 0-1.441-.027-1.74-.027-.054 0-.081.055-.081.109v2.855c0 .843.217 1.033 1.467 1.033.326 0 .843 0 1.142-.136.326-.136.462-.408.543-.897 0-.136.055-.19.136-.19.109 0 .109.108.109.217 0 .272-.109 1.114-.163 1.36-.082.325-.19.325-.652.325-.924 0-1.577 0-2.12-.027-.517 0-.897-.027-1.278-.027h-1.549c-.163 0-.244-.027-.244-.109 0-.054.054-.108.19-.108.19 0 .326 0 .435-.055.244-.054.299-.326.353-.68.055-.516.054-1.468.054-2.61v-2.147zM294.18 49.97v-2.582c0-.408-.109-.598-.516-.707-.109 0-.299-.027-.489-.027-.136 0-.218 0-.218-.109 0-.108.082-.108.272-.108.652 0 1.413.027 1.685.027.408 0 1.332-.027 1.712-.027.761 0 1.577.081 2.256.516.326.245.815.843.815 1.686 0 .897-.38 1.74-1.603 2.718 1.087 1.36 1.929 2.447 2.636 3.209.68.706 1.169.788 1.359.815.136 0 .245.027.353.027.109 0 .136.028.136.11 0 .108-.081.108-.217.108h-1.169c-.679 0-.978-.054-1.304-.245-.517-.272-.979-.843-1.685-1.794-.49-.68-1.06-1.495-1.196-1.686-.055-.081-.136-.081-.218-.081h-1.06s-.108 0-.108.081v.163c0 1.142-.001 2.094.054 2.61.027.354.109.626.489.68.19 0 .462.054.598.054.109 0 .136.028.136.11 0 .08-.082.108-.245.108-.706 0-1.603-.027-1.793-.027-.245 0-1.006.027-1.495.027-.163 0-.245-.027-.245-.109 0-.054.054-.109.19-.109.191 0 .327 0 .435-.054.245-.054.299-.326.354-.68.054-.516.054-1.468.054-2.61v-2.148zm1.413.952s0 .19.109.218c.245.081.625.109.924.109.489 0 .652-.055.87-.218.353-.272.707-.843.707-1.821 0-1.74-1.142-2.23-1.876-2.23-.299 0-.516 0-.652.055-.082 0-.109.081-.109.163v3.697zM309.722 49.97v-2.582c0-.408-.136-.625-.408-.68a2.4 2.4 0 0 0-.434-.054c-.109 0-.191 0-.191-.109 0-.081.109-.108.299-.108.462 0 1.223.027 1.577.027.299 0 1.032-.027 1.495-.027.163 0 .244 0 .244.108 0 .109-.081.109-.19.109s-.218 0-.353.027c-.327.055-.435.272-.463.707v4.731c0 1.169.001 2.148.055 2.664.027.326.109.544.489.598.163 0 .435.055.625.055.136 0 .19.027.19.108 0 .082-.108.11-.217.11-.815 0-1.576-.028-1.902-.028-.272 0-1.06.027-1.55.027-.163 0-.244-.027-.244-.109 0-.054.054-.108.19-.108.19 0 .326 0 .435-.055.245-.054.326-.245.353-.598.055-.517.054-1.468.054-2.664V49.97zM321.548 53.994c0 .952.19 1.278.435 1.36.217.081.435.081.625.081.136 0 .217 0 .217.109s-.108.109-.272.109c-.788 0-1.277-.027-1.522-.027-.108 0-.679.027-1.304.027-.163 0-.272 0-.272-.109 0-.081.082-.109.19-.109.163 0 .381 0 .544-.054.326-.109.353-.462.38-1.523l.109-7.231c0-.245.027-.408.163-.408s.245.163.462.38c.136.164 2.011 2.148 3.778 3.915.815.816 2.473 2.583 2.691 2.773h.054l-.109-5.464c0-.734-.108-.979-.407-1.088-.191-.081-.462-.081-.653-.081-.136 0-.19-.028-.19-.109 0-.109.136-.109.326-.109.625 0 1.223.027 1.468.027.136 0 .598-.027 1.196-.027.163 0 .272 0 .272.109 0 .081-.082.109-.218.109-.109 0-.217 0-.353.027-.354.109-.435.353-.462 1.033l-.136 7.694c0 .272-.054.38-.163.38-.136 0-.272-.135-.408-.271-.761-.734-2.337-2.338-3.587-3.589a69 69 0 0 1-2.909-3.072h-.027l.136 5.111zM344.974 54.837c0 .326 0 .354-.163.435-.788.408-1.984.544-2.935.544-2.99 0-5.626-1.414-5.626-4.785 0-1.957 1.006-3.317 2.12-3.997 1.168-.706 2.256-.788 3.288-.788.843 0 1.903.136 2.147.19.245.055.68.109.952.136.136 0 .163.055.163.136 0 .136-.082.462-.082 2.012 0 .19-.027.245-.136.245-.081 0-.108-.055-.108-.163-.028-.272-.109-.68-.408-1.006-.353-.38-1.332-.952-2.718-.952-.679 0-1.549.054-2.419.761-.679.571-1.114 1.496-1.114 2.991 0 2.61 1.658 4.595 4.24 4.595.326 0 .734 0 1.033-.136.19-.082.217-.245.217-.462V52.01c0-.408-.109-.598-.516-.68-.109 0-.299-.027-.462-.027-.109 0-.191 0-.191-.109s.082-.109.245-.109c.625 0 1.413.028 1.766.028.354 0 1.033-.028 1.441-.028.163 0 .244 0 .244.11 0 .08-.081.108-.163.108-.108 0-.19 0-.326.027-.326.054-.462.272-.462.68v2.8zM363.454 54.484c-1.196-1.06-1.522-2.42-1.522-3.589 0-.816.244-2.257 1.413-3.344.87-.816 2.038-1.305 3.859-1.305.761 0 1.196.054 1.767.109.462.054.842.163 1.223.217.136 0 .19.082.19.136 0 .109-.027.245-.054.68 0 .408 0 1.087-.027 1.332 0 .19-.028.272-.136.272s-.109-.109-.109-.272c0-.38-.163-.816-.462-1.115-.408-.435-1.359-.76-2.473-.76-1.06 0-1.767.271-2.283.76-.897.816-1.115 1.985-1.115 3.154 0 2.91 2.202 4.35 3.833 4.35 1.087 0 1.739-.109 2.228-.68.218-.217.354-.57.408-.815.027-.19.054-.245.163-.245.082 0 .109.082.109.19 0 .136-.136 1.197-.272 1.632-.054.217-.109.271-.326.353-.489.19-1.413.272-2.202.272-1.658 0-3.071-.354-4.185-1.332zM377.125 51.031c0-2.093 1.386-4.785 5.028-4.785 3.044 0 4.919 1.767 4.919 4.567s-1.957 5.003-5.055 5.003c-3.506 0-4.919-2.61-4.919-4.785zm8.262.245c0-2.72-1.576-4.432-3.56-4.432-1.414 0-2.99.788-2.99 3.806 0 2.529 1.413 4.54 3.751 4.54.842 0 2.826-.407 2.826-3.941zM396.399 52.118c0 1.55.001 2.392.245 2.61.218.19.516.272 1.468.272.652 0 1.114 0 1.413-.326.136-.163.299-.49.326-.734 0-.11.027-.19.136-.19.082 0 .109.054.109.217 0 .136-.082 1.06-.19 1.413-.082.272-.136.327-.762.327-.869 0-1.522 0-2.065-.028-.544 0-.978-.027-1.495-.027h-1.549c-.163 0-.245-.027-.245-.108 0-.055.055-.11.191-.11.19 0 .326 0 .435-.053.244-.055.298-.327.353-.68.054-.517.054-1.468.054-2.61V47.36c0-.408-.108-.598-.516-.707-.109 0-.245-.027-.408-.027-.136 0-.217 0-.217-.109 0-.108.081-.108.272-.108.57 0 1.331.027 1.657.027.299 0 1.196-.027 1.658-.027.163 0 .245 0 .245.108 0 .11-.082.11-.218.11s-.326 0-.462.026c-.326.055-.434.272-.462.707v4.731zM409.388 52.118c0 1.55 0 2.392.244 2.61.218.19.517.272 1.468.272.652 0 1.114 0 1.413-.326.136-.163.299-.49.326-.734 0-.11.028-.19.136-.19.082 0 .109.054.109.217 0 .136-.082 1.06-.19 1.413-.082.272-.136.327-.761.327-.87 0-1.522 0-2.066-.028-.543 0-.978-.027-1.495-.027h-1.549c-.163 0-.244-.027-.244-.108 0-.055.054-.11.19-.11.19 0 .326 0 .435-.053.244-.055.299-.327.353-.68.054-.517.054-1.468.054-2.61V47.36c0-.408-.108-.598-.516-.707-.109 0-.245-.027-.408-.027-.135 0-.217 0-.217-.109 0-.108.081-.108.272-.108.57 0 1.331.027 1.658.027.299 0 1.195-.027 1.657-.027.164 0 .245 0 .245.108 0 .11-.081.11-.217.11s-.327 0-.462.026c-.327.055-.435.272-.462.707v4.731zM420.829 49.97v-2.582c0-.408-.109-.598-.517-.707-.108 0-.299-.027-.462-.027-.136 0-.217 0-.217-.109s.081-.109.272-.109h4.7829999999999995c.245 0 .435-.054.516-.081.055 0 .136-.055.191-.055s.081.055.081.11c0 .08-.054.217-.109.788 0 .108-.027.652-.054.815 0 .055-.027.136-.109.136-.081 0-.108-.054-.108-.163 0-.081 0-.299-.082-.435-.081-.218-.217-.353-.815-.435-.218 0-1.495-.054-1.74-.054-.054 0-.081.027-.081.108v3.1s0 .136.081.136h1.957c.299 0 .462-.055.598-.19.082-.11.136-.164.19-.164.055 0 .082 0 .082.109s-.055.272-.109.897c0 .245-.054.734-.054.816 0 .109 0 .217-.109.217-.081 0-.109-.054-.109-.108 0-.11 0-.272-.054-.435-.054-.245-.217-.435-.679-.463-.218 0-1.441-.027-1.74-.027-.054 0-.081.055-.081.109v2.855c0 .843.217 1.033 1.467 1.033.326 0 .843 0 1.142-.136.326-.136.462-.408.543-.897 0-.136.055-.19.136-.19.109 0 .109.108.109.217 0 .272-.109 1.114-.163 1.36-.082.325-.191.325-.653.325-.924 0-1.576 0-2.119-.027-.517 0-.897-.027-1.278-.027h-1.549c-.163 0-.245-.027-.245-.109 0-.054.055-.108.191-.108.19 0 .326 0 .435-.055.244-.054.298-.326.353-.68.054-.516.054-1.468.054-2.61v-2.147zM441.32 54.837c0 .326 0 .354-.163.435-.788.408-1.984.544-2.935.544-2.99 0-5.626-1.414-5.626-4.785 0-1.957 1.005-3.317 2.12-3.997 1.168-.706 2.256-.788 3.288-.788.843 0 1.903.136 2.147.19.245.055.68.109.951.136.136 0 .164.055.164.136 0 .136-.082.462-.082 2.012 0 .19-.027.245-.136.245-.081 0-.109-.055-.109-.163-.027-.272-.108-.68-.407-1.006-.353-.38-1.332-.952-2.718-.952-.679 0-1.549.054-2.419.761-.679.571-1.114 1.496-1.114 2.991 0 2.61 1.658 4.595 4.24 4.595.326 0 .733 0 1.032-.136.191-.082.218-.245.218-.462V52.01c0-.408-.109-.598-.517-.68-.108 0-.299-.027-.462-.027-.108 0-.19 0-.19-.109s.082-.109.245-.109c.625 0 1.413.028 1.766.028.354 0 1.033-.028 1.441-.028.163 0 .244 0 .244.11 0 .08-.081.108-.163.108-.108 0-.19 0-.326.027-.326.054-.462.272-.462.68v2.8zM449.854 49.97v-2.582c0-.408-.109-.598-.516-.707-.109 0-.299-.027-.462-.027-.136 0-.218 0-.218-.109s.082-.109.272-.109h4.7829999999999995c.245 0 .435-.054.517-.081.054 0 .136-.055.19-.055s.081.055.081.11c0 .08-.054.217-.108.788 0 .108-.027.652-.055.815 0 .055-.027.136-.108.136-.082 0-.109-.054-.109-.163 0-.081 0-.299-.082-.435-.081-.218-.217-.353-.815-.435-.217 0-1.495-.054-1.739-.054-.055 0-.082.027-.082.108v3.1s0 .136.082.136h1.957c.299 0 .462-.055.597-.19.082-.11.136-.164.191-.164s.081 0 .081.109-.054.272-.109.897c0 .245-.054.734-.054.816 0 .109 0 .217-.109.217-.081 0-.108-.054-.108-.108 0-.11 0-.272-.055-.435-.054-.245-.217-.435-.679-.463-.218 0-1.441-.027-1.74-.027-.054 0-.081.055-.081.109v2.855c0 .843.217 1.033 1.468 1.033.326 0 .842 0 1.141-.136.326-.136.462-.408.544-.897 0-.136.054-.19.135-.19.109 0 .109.108.109.217 0 .272-.108 1.114-.163 1.36-.081.325-.19.325-.652.325-.924 0-1.576 0-2.12-.027-.516 0-.897-.027-1.277-.027h-1.549c-.164 0-.245-.027-.245-.109 0-.054.054-.108.19-.108.19 0 .326 0 .435-.055.245-.054.299-.326.353-.68.055-.516.055-1.468.055-2.61v-2.147z"/><path fill="#DBA328" d="M213.675 74.032s.055.054.055.108c0 .028-.028.055-.055.055 0 0-.054 0-.081-.027-.571-.381-1.604-1.496-1.604-3.046s1.169-2.8 1.604-3.099c.027 0 .054-.054.081-.054 0 0 .055.027.055.054 0 0 0 .055-.055.082-.326.38-1.005 1.55-1.005 2.909 0 1.36.407 2.284.978 3.018m5.572-2.203s-.055 0-.055.055l-.38 1.033c-.082.19-.109.353-.109.435 0 .136.054.217.299.217h.109s.108 0 .108.055c0 .054-.054.081-.135.081h-1.604c-.109 0-.136 0-.136-.081 0-.055.027-.055.082-.055h.217c.326-.054.462-.299.598-.652l1.794-4.486c.081-.218.136-.3.19-.3s.109.055.19.218c.163.381 1.305 3.317 1.767 4.405.272.652.489.734.625.788h.299c.054 0 .109 0 .109.055 0 .054-.055.081-.326.081h-1.359c-.136 0-.218 0-.218-.054 0-.055.027-.055.109-.055.054 0 .109-.081.054-.163l-.571-1.522s-.027-.055-.081-.055h-1.604zm1.467-.38s.055 0 .027-.055l-.652-1.767s0-.054-.027-.054-.027.027-.054.054l-.653 1.767s0 .055.028.055h1.331m7.42 1.25c0 .571.109.734.244.789.109.054.245.054.381.054.081 0 .136 0 .136.055q0 .081-.163.081h-1.658c-.082 0-.163 0-.163-.081 0-.055.054-.055.108-.055.082 0 .218 0 .327-.027.19-.054.217-.272.217-.897l.055-4.242c0-.135-.001-.244.081-.244.081 0 .136.081.272.217.081.082 1.169 1.251 2.228 2.284.49.49 1.468 1.523 1.577 1.631h.027l-.082-3.208c0-.435-.081-.57-.244-.652-.109-.055-.272-.055-.381-.055-.081 0-.108 0-.108-.054s.081-.054.19-.054h1.576c.082 0 .163 0 .163.054s-.027.054-.136.054h-.217c-.19.055-.245.218-.272.599l-.081 4.513c0 .163-.028.217-.082.217-.082 0-.163-.081-.244-.163-.463-.435-1.359-1.36-2.12-2.093-.789-.789-1.577-1.659-1.713-1.795l.082 3.018zm15.41-.87s-.055 0-.055.055l-.38 1.033a1.2 1.2 0 0 0-.109.435c0 .136.055.217.299.217h.109s.109 0 .109.055c0 .054-.055.081-.109.081h-1.604c-.081 0-.135 0-.135-.081 0-.055.027-.055.081-.055h.218c.326-.054.462-.299.598-.652l1.793-4.486c.082-.218.136-.3.19-.3.055 0 .109.055.191.218.163.381 1.304 3.317 1.766 4.405.272.652.49.734.625.788h.299c.055 0 .082 0 .082.055 0 .054-.054.081-.326.081H245.8c-.136 0-.218 0-.218-.054 0-.055.028-.055.109-.055.054 0 .109-.081.055-.163l-.571-1.522s-.027-.055-.082-.055h-1.603zm1.44-.38s.055 0 .028-.055l-.653-1.767s0-.054-.027-.054-.027.027-.054.054l-.652 1.767s0 .055.027.055h1.331m6.116-1.088V68.84c0-.245-.082-.354-.3-.408h-.271c-.082 0-.136 0-.136-.055 0-.054.054-.054.163-.054h1.902c.109 0 .163 0 .163.054 0 .055-.054.055-.108.055h-.218c-.19.027-.244.163-.272.408v2.528c0 1.033.218 1.468.571 1.767.326.272.653.3.897.3.326 0 .707-.11.979-.381.407-.408.407-1.033.407-1.767v-2.42c0-.245-.081-.353-.299-.408h-.271c-.082 0-.109 0-.109-.054 0-.055.054-.055.136-.055h1.63c.109 0 .136 0 .136.055 0 .054-.054.054-.136.054h-.217c-.19.027-.245.163-.272.408v2.284c0 .788-.081 1.631-.679 2.147-.517.436-1.033.517-1.495.517-.381 0-1.06 0-1.576-.49-.354-.326-.625-.87-.625-1.902V70.36m10.871-1.685h-1.06c-.408.054-.598.081-.707.244-.081.11-.108.19-.108.245q0 .081-.082.082c-.054 0-.054-.028-.054-.11 0-.108.136-.76.136-.815 0-.081.054-.136.081-.136.054 0 .136.082.299.082.217 0 .489.027.707.027h2.826c.218 0 .381 0 .489-.027.109 0 .163-.027.191-.027.054 0 .054.054.054.135v.816c0 .082 0 .109-.054.109-.055 0-.082-.027-.082-.136v-.082c0-.19-.217-.38-.842-.407h-.897v2.909c0 .652 0 1.223.027 1.522 0 .19.054.354.272.38h.353c.082 0 .109 0 .109.055s-.055.082-.136.082h-2.011c-.109 0-.136 0-.136-.082 0-.027.027-.054.108-.054h.245c.136-.027.19-.19.217-.408.028-.299.028-.87.028-1.522V68.62zm6.577 2.31c0-1.223.815-2.8 2.962-2.8 1.794 0 2.881 1.033 2.881 2.665 0 1.63-1.141 2.936-2.962 2.936-2.066 0-2.881-1.55-2.881-2.8m4.838.136c0-1.604-.924-2.61-2.093-2.61-.815 0-1.767.463-1.767 2.23 0 1.495.816 2.664 2.202 2.664.489 0 1.658-.245 1.658-2.31m6.142 1.603c0 .571.109.734.245.789.108.054.244.054.38.054.082 0 .109 0 .109.055q0 .081-.163.081h-1.658c-.082 0-.163 0-.163-.081 0-.055.054-.055.108-.055.082 0 .218 0 .327-.027.19-.054.217-.272.217-.897l.054-4.242c0-.135 0-.244.082-.244.081 0 .136.081.272.217.081.082 1.168 1.251 2.228 2.284.489.49 1.441 1.523 1.577 1.631h.027l-.082-3.208c0-.435-.081-.57-.244-.652-.109-.055-.272-.055-.381-.055-.081 0-.109 0-.109-.054s.082-.054.191-.054h1.576c.081 0 .163 0 .163.054s-.054.054-.136.054h-.217c-.191.055-.272.218-.272.599l-.082 4.513c0 .163-.027.217-.081.217-.082 0-.163-.081-.245-.163-.462-.435-1.359-1.36-2.12-2.093-.788-.789-1.576-1.659-1.712-1.795l.082 3.018zm8.751-1.712c0-1.224.816-2.8 2.963-2.8 1.766 0 2.881 1.032 2.881 2.664 0 1.63-1.142 2.936-2.963 2.936-2.065 0-2.881-1.55-2.881-2.8m4.838.136c0-1.605-.924-2.61-2.093-2.61-.815 0-1.766.462-1.766 2.229 0 1.495.815 2.664 2.201 2.664.489 0 1.658-.245 1.658-2.31m6.006-2.801s.055-.19.109-.19.109.027.19.217l1.957 4.024 1.957-4.078s.082-.163.163-.163c.082 0 .109.081.136.217l.652 4.432c.055.462.136.652.353.734.218.054.354.081.435.081.055 0 .109 0 .109.055 0 .054-.081.081-.19.081-.19 0-1.169 0-1.441-.054-.163 0-.217-.027-.217-.082q0-.04.082-.081c.054 0 .054-.109.027-.3l-.435-3.153h-.027l-1.55 3.263c-.163.326-.19.407-.271.407s-.136-.136-.245-.353c-.163-.326-.734-1.414-.815-1.631a84 84 0 0 0-.734-1.577h-.027l-.381 2.855v.326c0 .136.082.19.218.217s.217.027.299.027c.054 0 .108 0 .108.055q0 .081-.163.081h-1.467c-.082 0-.136 0-.136-.081 0-.027.054-.055.109-.055h.217c.19-.027.245-.326.299-.57l.707-4.65zm9.567 2.692c0-1.224.815-2.8 2.963-2.8 1.793 0 2.88 1.032 2.88 2.664 0 1.63-1.141 2.936-2.962 2.936-2.065 0-2.881-1.55-2.881-2.8m4.838.136c0-1.605-.924-2.61-2.093-2.61-.815 0-1.766.462-1.766 2.229 0 1.495.815 2.664 2.201 2.664.489 0 1.658-.245 1.658-2.31m5.463-.735V68.84c0-.245-.082-.354-.299-.408h-.272c-.082 0-.109 0-.109-.055 0-.054.055-.054.163-.054h1.903c.108 0 .163 0 .163.054 0 .055-.054.055-.109.055h-.217c-.191.027-.245.163-.272.408v2.528c0 1.033.217 1.468.571 1.767.326.272.652.3.897.3.326 0 .706-.11.978-.381.38-.408.408-1.033.408-1.767v-2.42c0-.245-.082-.353-.299-.408h-.245c-.054 0-.136 0-.136-.054 0-.055.055-.055.163-.055h1.6309999999999998c.109 0 .136 0 .136.055 0 .054-.027.054-.136.054h-.218c-.19.027-.244.163-.271.408v2.284c0 .788-.082 1.631-.68 2.147-.516.436-1.032.517-1.494.517-.381 0-1.06 0-1.577-.49-.353-.326-.625-.87-.625-1.902v-1.034zm9.104 3.236s-.136-.082-.136-.245c0-.38.028-.816.028-.925 0-.108.027-.19.081-.19s.082.055.082.136.027.245.054.354c.163.543.571.734 1.033.734.652 0 .951-.435.951-.816 0-.353-.109-.68-.707-1.142l-.326-.245c-.788-.625-1.06-1.114-1.06-1.685 0-.789.653-1.36 1.658-1.36.462 0 .761.082.951.136.055 0 .109.028.109.082 0 .082-.027.299-.027.87 0 .163 0 .218-.082.218-.054 0-.081-.055-.081-.137a.8.8 0 0 0-.19-.462c-.109-.136-.299-.353-.789-.353-.516 0-.842.299-.842.734 0 .326.163.57.761 1.033l.19.163c.87.653 1.169 1.142 1.169 1.822 0 .408-.163.897-.68 1.25a2.2 2.2 0 0 1-1.141.3c-.408 0-.734-.055-1.033-.19m13.29-3.318V68.84c0-.245-.081-.354-.244-.408-.082 0-.163-.027-.245-.027s-.109 0-.109-.082c0-.054.055-.054.164-.054h1.7930000000000001c.082 0 .136 0 .136.054 0 .055-.027.082-.109.082h-.217c-.19.027-.245.163-.272.408v2.7720000000000002c0 .708 0 1.251.027 1.578 0 .19.082.326.299.353h.354c.081 0 .108 0 .108.054 0 .055-.054.082-.136.082h-2.011c-.081 0-.136 0-.136-.082 0-.027.028-.054.109-.054h.245c.136-.027.19-.163.217-.353.027-.3.027-.87.027-1.55zm7.012 2.338c0 .571.109.734.245.789.136.054.272.054.38.054.082 0 .109 0 .109.055q0 .081-.163.081h-1.685c-.081 0-.163 0-.163-.081 0-.055.054-.055.109-.055.081 0 .217 0 .326-.027.19-.054.217-.272.217-.897l.055-4.242c0-.135 0-.244.081-.244.082 0 .136.081.272.217.081.082 1.169 1.251 2.228 2.284.49.49 1.441 1.523 1.577 1.631h.027l-.082-3.208c0-.435-.081-.57-.244-.652-.109-.055-.272-.055-.381-.055-.081 0-.108 0-.108-.054s.081-.054.19-.054h1.576c.082 0 .163 0 .163.054s-.054.054-.136.054h-.217c-.19.055-.272.218-.272.599l-.081 4.513c0 .163-.027.217-.082.217-.081 0-.163-.081-.244-.163-.463-.435-1.359-1.36-2.12-2.093-.788-.789-1.577-1.659-1.713-1.795l.082 3.018zm9.023.898s-.135-.082-.135-.245c0-.38.027-.816.027-.925 0-.108.027-.19.081-.19s.082.055.082.136.027.245.054.354c.163.543.571.734 1.033.734.652 0 .951-.435.951-.816 0-.353-.108-.68-.706-1.142l-.327-.245c-.788-.625-1.06-1.114-1.06-1.685 0-.789.653-1.36 1.658-1.36.462 0 .761.082.952.136.054 0 .108.028.108.082 0 .082-.027.299-.027.87 0 .163 0 .218-.081.218-.055 0-.082-.055-.082-.137a.8.8 0 0 0-.19-.462c-.109-.136-.326-.353-.788-.353-.517 0-.843.299-.843.734 0 .326.163.57.761 1.033l.19.163c.87.653 1.169 1.142 1.169 1.822 0 .408-.163.897-.679 1.25a2.2 2.2 0 0 1-1.142.3c-.408 0-.734-.055-1.06-.19m8.915-5.003h-1.06c-.408.054-.598.081-.707.244-.082.11-.109.19-.109.245q0 .081-.081.082c-.055 0-.055-.028-.055-.11 0-.108.136-.76.164-.815 0-.081.054-.136.081-.136.054 0 .136.082.299.082.217 0 .489.027.707.027h2.826c.245 0 .381 0 .489-.027.109 0 .163-.027.191-.027.054 0 .054.054.054.135v.816c0 .082 0 .109-.054.109-.055 0-.082-.027-.082-.136v-.082c0-.19-.217-.38-.842-.407h-.897v2.909c0 .652 0 1.223.027 1.522 0 .19.054.354.272.38h.353c.081 0 .109 0 .109.055s-.055.082-.136.082h-2.012c-.081 0-.135 0-.135-.082 0-.027.027-.054.108-.054h.245c.136-.027.19-.19.217-.408.028-.299.028-.87.028-1.522V68.62zm7.528 1.685V68.84c0-.245-.082-.354-.245-.408-.081 0-.163-.027-.244-.027-.082 0-.109 0-.109-.082 0-.054.054-.054.163-.054h1.794c.081 0 .163 0 .163.054 0 .055-.054.082-.109.082h-.217c-.191.027-.245.163-.272.408v2.7720000000000002c0 .708 0 1.251.027 1.578 0 .19.082.326.299.353h.353c.082 0 .109 0 .109.054 0 .055-.054.082-.136.082h-2.011c-.081 0-.136 0-.136-.082 0-.027.027-.054.109-.054h.245c.135-.027.19-.163.217-.353.027-.3.027-.87.027-1.55v-1.25zm7.528-1.685h-1.06c-.407.054-.597.081-.706.244-.082.11-.109.19-.109.245q0 .081-.081.082c-.055 0-.055-.028-.055-.11 0-.108.136-.76.136-.815 0-.081.054-.136.082-.136.054 0 .135.082.299.082.217 0 .489.027.706.027h2.827c.217 0 .38 0 .489-.027.109 0 .163-.027.19-.027.054 0 .055.054.055.135v.816c0 .082-.001.109-.055.109s-.081-.027-.081-.136v-.082c0-.19-.218-.38-.843-.407h-.897v2.909c0 .652 0 1.223.027 1.522 0 .19.055.354.272.38h.353c.082 0 .109 0 .109.055s-.054.082-.136.082h-2.011c-.081 0-.136 0-.136-.082 0-.027.027-.054.109-.054h.245c.135-.027.19-.19.217-.408.027-.299.027-.87.027-1.522V68.62zm7.42 1.685V68.84c0-.245-.082-.354-.299-.408h-.272c-.081 0-.109 0-.109-.055 0-.054.055-.054.164-.054h1.9289999999999998c.109 0 .163 0 .163.054 0 .055-.054.055-.108.055h-.218c-.19.027-.244.163-.272.408v2.528c0 1.033.218 1.468.571 1.767.326.272.652.3.897.3.326 0 .707-.11.978-.381.381-.408.408-1.033.408-1.767v-2.42c0-.245-.081-.353-.299-.408h-.272c-.081 0-.108 0-.108-.054 0-.055.054-.055.163-.055h1.63c.109 0 .163 0 .163.055 0 .054-.054.054-.135.054h-.218c-.19.027-.244.163-.272.408v2.284c0 .788-.081 1.631-.679 2.147-.516.436-1.033.517-1.495.517-.38 0-1.06 0-1.576-.49-.381-.326-.625-.87-.625-1.902v-1.034zm10.871-1.685h-1.06c-.407.054-.598.081-.706.244-.082.11-.109.19-.109.245q0 .081-.082.082c-.054 0-.054-.028-.054-.11 0-.108.136-.76.136-.815 0-.081.054-.136.081-.136.055 0 .136.082.299.082.218 0 .49.027.707.027h2.827c.217 0 .38 0 .489-.027.109 0 .163-.027.19-.027.054 0 .054.054.054.135v.816c0 .082 0 .109-.054.109s-.081-.027-.081-.136v-.082c0-.19-.218-.38-.843-.407h-.897v2.909c0 .652 0 1.223.027 1.522 0 .19.055.354.272.38h.353c.082 0 .109 0 .109.055s-.054.082-.136.082h-2.011c-.082 0-.136 0-.136-.082 0-.027.027-.054.109-.054h.244c.136-.027.191-.19.218-.408.027-.299.027-.87.027-1.522V68.62zm7.529 1.685V68.84c0-.245-.082-.354-.245-.408-.081 0-.163-.027-.272-.027-.081 0-.108 0-.108-.082 0-.054.054-.054.163-.054h1.7930000000000001c.082 0 .163 0 .163.054 0 .055-.054.082-.108.082h-.218c-.19.027-.244.163-.271.408v2.7720000000000002c0 .708 0 1.251.027 1.578 0 .19.081.326.299.353h.353c.082 0 .109 0 .109.054 0 .055-.055.082-.136.082h-2.011c-.082 0-.136 0-.136-.082 0-.027.027-.054.108-.054h.245c.136-.027.19-.163.217-.353.028-.3.028-.87.028-1.55zm5.544.626c0-1.224.815-2.8 2.962-2.8 1.794 0 2.881 1.032 2.881 2.664 0 1.63-1.141 2.936-2.962 2.936-2.066 0-2.881-1.55-2.881-2.8m4.838.136c0-1.605-.924-2.61-2.093-2.61-.815 0-1.767.462-1.767 2.229 0 1.495.816 2.664 2.202 2.664.489 0 1.658-.245 1.658-2.31m6.169 1.603c0 .571.109.734.245.789.108.054.244.054.38.054.082 0 .109 0 .109.055q0 .081-.163.081h-1.658c-.082 0-.163 0-.163-.081 0-.055.054-.055.109-.055.108 0 .217 0 .326-.027.19-.054.217-.272.217-.897l.055-4.242c0-.135 0-.244.081-.244.082 0 .136.081.272.217.081.082 1.169 1.251 2.229 2.284.489.49 1.44 1.523 1.576 1.631h.027l-.081-3.208c0-.435-.082-.57-.245-.652-.109-.055-.272-.055-.381-.055-.081 0-.108 0-.108-.054s.081-.054.19-.054h1.576c.082 0 .163 0 .163.054s-.054.054-.136.054h-.217c-.19.055-.245.218-.272.599l-.081 4.513c0 .163-.028.217-.082.217-.081 0-.163-.081-.244-.163-.462-.435-1.359-1.36-2.12-2.093-.789-.789-1.577-1.659-1.713-1.795l.082 3.018zm8.942-4.567s-.055-.055-.055-.109c0-.027.028-.054.055-.054 0 0 .054 0 .081.027.571.408 1.604 1.495 1.604 3.045s-1.169 2.8-1.604 3.1c-.027 0-.054.026-.081.026 0 0-.055-.027-.055-.054 0 0 0-.054.055-.081.326-.381 1.005-1.55 1.005-2.91 0-1.359-.434-2.283-.978-3.017M24.325 33.597c3.72 2.152 7.457 3.612 10.754 4.335.723.157 1.43.282 2.104.377.44.062.864.11 1.288.125-2.23-3.314-6.217-6.894-11.257-9.815-5.056-2.922-10.142-4.57-14.13-4.838 2.23 3.314 6.201 6.91 11.257 9.816m20.457-28.16C41.815 9.93 39.93 16.495 39.93 23.814c0 7.318 1.884 13.867 4.867 18.375 2.983-4.492 4.867-11.057 4.867-18.375 0-7.319-1.884-13.868-4.867-18.375m6.358 33.013c.424-.032.864-.063 1.319-.126.675-.094 1.381-.22 2.104-.377 3.297-.738 7.017-2.198 10.723-4.334 5.055-2.921 9.027-6.502 11.256-9.816-3.987.267-9.09 1.932-14.13 4.837-5.055 2.921-9.042 6.502-11.256 9.832M37.67 29.733c-.204-3.046-1.476-6.925-3.705-10.789-2.23-3.848-4.961-6.895-7.49-8.59.205 3.046 1.477 6.941 3.69 10.789 2.23 3.863 4.962 6.894 7.49 8.59m21.775-8.59c2.23-3.864 3.485-7.743 3.69-10.79-2.528 1.696-5.276 4.743-7.49 8.591-2.229 3.864-3.485 7.743-3.689 10.79 2.528-1.697 5.26-4.744 7.489-8.591M13.869 35.45c1.947.518 3.846.377 5.306-.282-.926-1.304-2.496-2.403-4.443-2.922-1.946-.534-3.846-.377-5.306.283.926 1.304 2.496 2.403 4.443 2.921M26.083 23.28c-.157-1.602-.973-3.33-2.386-4.759s-3.14-2.246-4.741-2.403c.14 1.602.957 3.33 2.386 4.759 1.413 1.429 3.14 2.246 4.741 2.403M38 16.43c.675-1.46.832-3.376.314-5.308-.519-1.948-1.602-3.518-2.905-4.46-.675 1.46-.832 3.36-.314 5.308s1.602 3.518 2.905 4.46m16.673-4.397c.534-1.948.377-3.848-.283-5.309-1.303.927-2.402 2.497-2.92 4.445-.534 1.947-.377 3.848.283 5.308 1.303-.926 2.402-2.497 2.92-4.444m16.124 4.209c-1.602.157-3.329.974-4.757 2.387-1.429 1.413-2.246 3.141-2.403 4.743 1.602-.157 3.329-.974 4.758-2.387s2.245-3.141 2.417-4.743m-.345 19.066c1.46.675 3.36.832 5.307.314 1.946-.518 3.516-1.602 4.458-2.905-1.46-.676-3.36-.833-5.306-.315-1.947.519-3.517 1.602-4.459 2.906"/><path fill="#fff" d="m32.08 61.018-9.938 9.942A36.7 36.7 0 0 1 10.76 55.694h16.642a20.3 20.3 0 0 0 4.694 5.324"/><path fill="#fff" d="M24.388 45.062c0-.471.377-.848.848-.848.47 0 .848.377.848.848 0 7.475 4.396 13.946 10.754 16.946V48.313c.031-1.65.063-3.848-.298-6.031a10 10 0 0 0-1.382-.11H8.154c0 4.146.691 8.12 1.947 11.826H26.43a20.3 20.3 0 0 1-2.057-8.936M38.346 42.706c.267 2.073.235 4.083.204 5.638v14.370999999999999c1.711.612 3.532.973 5.432 1.067v-15.94a9.74 9.74 0 0 0-5.62-5.136M37.34 64.08s-.032 0-.048-.015a20.2 20.2 0 0 1-3.83-2.01l-9.954 9.957a36.5 36.5 0 0 0 20.472 6.832V65.479a20.4 20.4 0 0 1-6.5-1.351c-.046 0-.093-.031-.14-.047M45.662 47.905v15.877a18.2 18.2 0 0 0 5.48-1.083V48.344c-.032-1.555-.063-3.565.203-5.638a9.62 9.62 0 0 0-5.683 5.198M52.492 64.002c-.126.063-.267.11-.393.157h-.016c-2.01.77-4.16 1.241-6.42 1.32v13.365a36.43 36.43 0 0 0 20.487-6.832l-9.969-9.973a19.8 19.8 0 0 1-3.69 1.963M57.563 61.003l9.953 9.957A36.7 36.7 0 0 0 78.9 55.694H62.24a20.7 20.7 0 0 1-4.678 5.309"/><path fill="#fff" d="M54.47 42.172c-.456 0-.912.031-1.351.094-.361 2.183-.33 4.382-.298 6.047v13.679c6.327-3.015 10.691-9.47 10.691-16.915 0-.47.377-.848.848-.848s.848.377.848.848c0 3.204-.738 6.235-2.057 8.937h16.36a36.4 36.4 0 0 0 1.946-11.826H54.453z"/></svg>