<svg width="229" height="223" viewBox="0 0 229 223" fill="none" xmlns="http://www.w3.org/2000/svg">
<path d="M116.239 1C103.985 16.919 86.8289 60.6056 116.239 108C126.623 89.6629 141.162 42.591 116.239 1Z" fill="#D8A228"/>
<path d="M14.7012 55.1107C21.3279 70.2312 46.3434 100.331 93.3914 99.7668C84.2113 84.9303 55.6211 55.228 14.7012 55.1107Z" fill="#D8A228"/>
<path d="M214.157 59.6068C197.512 56.7973 157.95 60.8608 132.856 99.5902C150.644 100.16 191.807 92.9609 214.157 59.6068Z" fill="#D8A228"/>
<path d="M173.547 17.5035C162.617 22.5935 139.902 41.0657 136.48 74.2343C147.421 67.3512 170.153 46.3686 173.547 17.5035Z" fill="#D8A228"/>
<path d="M54.9139 17.5035C65.8438 22.5935 88.5591 41.0657 91.9812 74.2343C81.0398 67.3512 58.3083 46.3686 54.9139 17.5035Z" fill="#D8A228"/>
<path d="M33.0564 32.2458C38.8077 32.4847 51.2406 36.7112 54.9608 51.7066C49.0947 50.6226 36.5012 45.213 33.0564 32.2458Z" fill="#D8A228"/>
<path d="M83.8106 2.53243C88.7297 5.44208 97.5235 14.9816 93.3462 29.8625C88.7456 26.1588 80.3977 15.5076 83.8106 2.53243Z" fill="#D8A228"/>
<path d="M4.09035 83.8127C9.32018 81.4718 22.3653 79.7129 32.7069 91.4047C26.9787 93.0446 13.236 93.8221 4.09035 83.8127Z" fill="#D8A228"/>
<path d="M197.944 34.6721C192.192 34.9109 179.759 39.1375 176.039 54.1328C181.905 53.0489 194.499 47.6393 197.944 34.6721Z" fill="#D8A228"/>
<path d="M147.189 4.95919C142.27 7.86884 133.476 17.4084 137.654 32.2893C142.254 28.5856 150.602 17.9344 147.189 4.95919Z" fill="#D8A228"/>
<path d="M226.91 86.2385C221.68 83.8976 208.635 82.1387 198.293 93.8305C204.021 95.4704 217.764 96.2479 226.91 86.2385Z" fill="#D8A228"/>
<path d="M109.025 221.5C75.0247 221.1 54.5247 208.334 48.5247 202L79.0247 171.5C89.8247 179.5 104.525 181.5 110.525 181.5L109.025 221.5Z" fill="#33409C"/>
<path d="M74.0247 168.5L44.0247 198C21.6247 182.8 11.6913 161.334 9.52465 152.5H61.0247C63.4247 159.3 70.6913 166 74.0247 168.5Z" fill="#33409C"/>
<path d="M57.5247 146C51.8356 135.6 50.8209 122 51.0247 116.5H56.0234C58.0234 150.9 78.5234 166.5 88.5234 170V111.5H1.02465C0.624653 127.1 5.19132 141 7.52465 146H57.5247Z" fill="#33409C"/>
<path d="M94.0234 171.5V111.5C94.0234 111.5 109.522 110.501 110.023 127C110.525 143.5 110.023 175 110.023 175C103.223 175.8 96.5234 173 94.0234 171.5Z" fill="#33409C"/>
<path d="M117.022 221C151.022 220.6 171.522 207.833 177.522 201.5L147.022 171C136.222 179 121.522 181 115.522 181L117.022 221Z" fill="#33409C"/>
<path d="M152.022 168L182.022 197.5C204.422 182.3 214.356 160.833 216.522 152H165.022C162.622 158.8 155.356 165.5 152.022 168Z" fill="#33409C"/>
<path d="M168.522 145.5C174.211 135.1 175.226 121.5 175.022 116H170.023C168.023 150.4 147.523 166 137.523 169.5V111H225.022C225.422 126.6 220.856 140.5 218.522 145.5H168.522Z" fill="#33409C"/>
<path d="M132.023 171V111C132.023 111 116.023 113 116.023 126.5V174.5C122.823 175.3 129.523 172.5 132.023 171Z" fill="#33409C"/>
<path d="M117.022 221C151.022 220.6 171.522 207.833 177.522 201.5L147.022 171C136.222 179 121.522 181 115.522 181L117.022 221Z" stroke="#33409C"/>
<path d="M152.022 168L182.022 197.5C204.422 182.3 214.356 160.833 216.522 152H165.022C162.622 158.8 155.356 165.5 152.022 168Z" stroke="#33409C"/>
<path d="M168.522 145.5C174.211 135.1 175.226 121.5 175.022 116H170.023C168.023 150.4 147.523 166 137.523 169.5V111H225.022C225.422 126.6 220.856 140.5 218.522 145.5H168.522Z" stroke="#33409C"/>
<path d="M132.023 171V111C132.023 111 116.023 113 116.023 126.5V174.5C122.823 175.3 129.523 172.5 132.023 171Z" stroke="#33409C"/>
</svg>
